<svg id="logo" xmlns="http://www.w3.org/2000/svg" width="197.51" height="43.343" viewBox="0 0 197.51 43.343">
  <path id="Path_1923" data-name="Path 1923" d="M14.185,4.215a.407.407,0,0,0-.814,0A.391.391,0,0,0,13.8,4.6a.378.378,0,0,0,.383-.383M21.657,8.19a.385.385,0,1,0-.766-.048.391.391,0,0,0,.383.431.378.378,0,0,0,.383-.383m8.333,6.753a.352.352,0,0,0,.383-.383.383.383,0,0,0-.766,0,.352.352,0,0,0,.383.383M27.6,7.9a.383.383,0,0,0-.383.383.391.391,0,0,0,.383.431.412.412,0,0,0,.383-.383A.383.383,0,0,0,27.6,7.9M5.421,25.383a.383.383,0,0,0-.431.383.391.391,0,0,0,.431.383.378.378,0,0,0,.383-.383.383.383,0,0,0-.383-.383m20.211-8.142a.39.39,0,1,0-.766-.048.383.383,0,0,0,.766,0m1.916,4.119a.479.479,0,1,0,.479.479.479.479,0,0,0-.479-.479M24.77,18.918a.479.479,0,1,0,.479-.479.48.48,0,0,0-.479.479m5.7-2.634a.479.479,0,1,0-.479.479.479.479,0,0,0,.479-.479m-15.709,9.1a.479.479,0,1,0-.479.479.479.479,0,0,0,.479-.479M27.6,10.536a.479.479,0,1,0-.479-.479.479.479,0,0,0,.479.479M19.454,7.663a.479.479,0,1,0-.479-.479.479.479,0,0,0,.479.479M18.017,27.155a.479.479,0,0,0-.479.479.515.515,0,0,0,.479.479.479.479,0,1,0,0-.958M11.887,5.172a.479.479,0,1,0-.479-.479.479.479,0,0,0,.479.479M3.7,24.186a.452.452,0,0,0,.479.479.479.479,0,1,0-.479-.479M16.053,28.4a.551.551,0,1,0-.575-.527.544.544,0,0,0,.575.527M27.548,12.6a.634.634,0,0,0,.623-.623.575.575,0,0,0-1.149,0,.553.553,0,0,0,.575.575m2.347,6.226a.542.542,0,0,0,.575-.527.623.623,0,0,0-.575-.575.575.575,0,1,0,0,1.149m-4.693,2.586a.582.582,0,0,0,.575-.575.575.575,0,1,0-1.149,0,.553.553,0,0,0,.575.575m-22.222.335a.575.575,0,0,0-.575.575.618.618,0,0,0,.575.575.618.618,0,0,0,.575-.575.552.552,0,0,0-.575-.575M17.2,7.088a.618.618,0,0,0,.575-.575.575.575,0,1,0-.575.575M10.5,5.556a.575.575,0,1,0-1.149,0,.575.575,0,1,0,1.149,0M27.6,23.324a.576.576,0,0,0-.048,1.149.594.594,0,0,0,.623-.575.575.575,0,0,0-.575-.575M12.749,24.761a.575.575,0,1,0-1.149,0,.575.575,0,1,0,1.149,0m.958,5.843h.1a.653.653,0,0,0,.575-.479.575.575,0,0,0-.431-.67l-.383-.048-1.485-.335-1.054-.335a.587.587,0,0,0-.718.527.709.709,0,0,0,.479.623,17.225,17.225,0,0,0,2.107.575l.862.144M17.011,3.544h-.144a.575.575,0,0,0-.479.67.616.616,0,0,0,.575.479l.575.1a8.282,8.282,0,0,1,1.485.335l.958.335a.592.592,0,0,0,.67-.192.575.575,0,0,0,0-.623.577.577,0,0,0-.479-.335,10.661,10.661,0,0,0-2.107-.623l-1.006-.144m10.01,13.649v2.634a.575.575,0,1,0,1.149,0V14.559a.575.575,0,0,0-1.149,0ZM13.563,28.209a.546.546,0,0,0,.671-.479.575.575,0,0,0-.479-.623l-.575-.144a11.59,11.59,0,0,1-4.933-2.586,1.15,1.15,0,0,0-.287-.144.564.564,0,0,0-.623.91l.335.287a11.782,11.782,0,0,0,5.22,2.682l.67.1M31.714,30.7l-.1.192a.569.569,0,0,1-1.054-.287V20.929a.629.629,0,0,0-.479-.623.575.575,0,0,0-.67.479v6.8a.585.585,0,0,1-.479.623.575.575,0,0,1-.718-.575V26.1a.577.577,0,1,0-1.149,0l-.048.623a.558.558,0,0,1-1.1-.144V22.893a.6.6,0,0,0-1.2-.1v5.268a.607.607,0,0,1-.479.575.575.575,0,0,1-.718-.527V15.8A7.711,7.711,0,0,0,17.49,8.381l-1.149-.144h-.814a7.8,7.8,0,0,0-7.519,7.232v1.245a7.663,7.663,0,0,0,4.6,6.37,7.109,7.109,0,0,0,1.964.575l1.2.1a4.167,4.167,0,0,1,3.831,2.73,4.028,4.028,0,0,1-3.017,5.364,4.824,4.824,0,0,1-1.437.048,8.5,8.5,0,0,1-1.533-.1,15.613,15.613,0,0,1-7.854-3.352,15.8,15.8,0,0,1-5.7-9.531A.577.577,0,0,1,.536,18.2a.508.508,0,0,1,.623.431l.479,1.82a.618.618,0,0,0,.623.431.48.48,0,0,0,.479-.479c.048-.1,0-.239,0-.335a10.68,10.68,0,0,1-.575-3.113l-.048-1.437a.585.585,0,0,1,.479-.623.575.575,0,0,1,.67.575V16.81a10.952,10.952,0,0,0,.814,3.5,6.926,6.926,0,0,0,.431,1.054.592.592,0,0,0,.718.287.518.518,0,0,0,.335-.67l-.335-.862-.335-.958a.518.518,0,0,1,.335-.67.5.5,0,0,1,.67.287l.335.814a9.962,9.962,0,0,0,3.544,4.646.659.659,0,0,0,.814-.1.734.734,0,0,0,0-.766l-.766-.623-.862-.814A9.243,9.243,0,0,1,6.954,18.1a11.015,11.015,0,0,1-.192-2.3A8.621,8.621,0,0,1,9.157,9.818a9.811,9.811,0,0,1,4.167-2.49l1.054-.192a.621.621,0,0,0,.479-.958.575.575,0,0,0-.575-.239,7.976,7.976,0,0,0-1.533.383A9.674,9.674,0,0,0,8.151,9.2l-.239.239a.566.566,0,0,1-.718-.862l.862-.862.335-.287A.66.66,0,0,0,8.63,6.8a.575.575,0,0,0-.479-.479.72.72,0,0,0-.527.192l-1.2,1.149A11.141,11.141,0,0,0,5.134,9.435a.658.658,0,0,1-.479.383.478.478,0,0,1-.527-.192.527.527,0,0,1-.048-.67l.718-1.1a13.7,13.7,0,0,1,9.866-5.46L16.1,2.347h.335a.621.621,0,0,0,.431-.67.563.563,0,0,0-.527-.479h-1.82a.527.527,0,0,1-.479-.575A.522.522,0,0,1,14.521.1l.766-.1a16.442,16.442,0,0,1,8,1.916l.67.335.383-.575A3.9,3.9,0,0,1,27.069.048a4.062,4.062,0,0,1,4.5,3.017l.1.67v.1ZM3.6,7.088a.521.521,0,0,1-.479-.335.437.437,0,0,1,0-.575l.527-.67A16,16,0,0,1,9.636,1.2a.6.6,0,0,1,.862.479.6.6,0,0,1-.383.575A14.847,14.847,0,0,0,4.99,5.8l-.814.958c-.144.1-.239.287-.479.287H3.6" transform="translate(0.182)" fill="#59a745" fill-rule="evenodd"/>
  <path id="Path_1924" data-name="Path 1924" d="M4.789,13.959a5.016,5.016,0,0,1,.239-1.437,13.242,13.242,0,0,1,.958-2.251c.1-.144.192-.335.431-.383a.523.523,0,0,1,.575.192.509.509,0,0,1,.048.67A4.192,4.192,0,0,0,6.561,11.8a8.65,8.65,0,0,0-.67,2.155.456.456,0,0,1-.1.335.527.527,0,0,1-.67.239.563.563,0,0,1-.335-.575M3.113,12.522a.553.553,0,0,1,.575.575.582.582,0,0,1-.575.575.575.575,0,0,1-.575-.575.582.582,0,0,1,.575-.575M.575,13.911a.575.575,0,0,1,.575.527.582.582,0,0,1-.575.575A.575.575,0,0,1,0,14.486a.553.553,0,0,1,.575-.575m0,3.3A.575.575,0,0,1,0,16.641a.582.582,0,0,1,.575-.575.582.582,0,0,1,.575.575.618.618,0,0,1-.575.575m5.172-.91a.544.544,0,0,1-.527.575.575.575,0,0,1-.575-.575.582.582,0,0,1,.575-.575.618.618,0,0,1,.575.575M24.234,30.674a.575.575,0,0,1-.575-.575.618.618,0,0,1,.575-.575.582.582,0,0,1,.575.575.553.553,0,0,1-.575.575m4.693-1.006a.575.575,0,0,1-.575-.575.575.575,0,1,1,1.149,0,.582.582,0,0,1-.575.575M26.581,27.7a.553.553,0,0,1,.575.575.582.582,0,0,1-.575.575.618.618,0,0,1-.575-.575.553.553,0,0,1,.575-.575M13.7.549A.479.479,0,1,1,13.218.07.479.479,0,0,1,13.7.549M1.389,12.331a.479.479,0,1,1-.479-.479.479.479,0,0,1,.479.479M27.059,30.195a.479.479,0,0,1-.958,0,.515.515,0,0,1,.479-.479.48.48,0,0,1,.479.479M4.167,11.133a.479.479,0,0,1-.958,0,.515.515,0,0,1,.479-.479.515.515,0,0,1,.479.479M11.782.453a.367.367,0,0,1,.383.431.412.412,0,0,1-.383.383A.431.431,0,0,1,11.4.836a.412.412,0,0,1,.383-.383M1.437,10.894a.431.431,0,0,1-.383-.431.412.412,0,0,1,.383-.383.422.422,0,0,1,.431.383.429.429,0,0,1-.431.431M26.581,32.206a.431.431,0,0,1-.383-.431.383.383,0,0,1,.766,0,.422.422,0,0,1-.383.431" transform="translate(0 0.265)" fill="#59a745" fill-rule="evenodd"/>
  <path id="Path_1925" data-name="Path 1925" d="M26.347,21.918a5.055,5.055,0,0,0,.1,1.2,5.384,5.384,0,0,0,1.772,3.161A5.119,5.119,0,0,0,35.973,24.6a5.494,5.494,0,0,0,.479-3.592,5.043,5.043,0,0,0-5.508-4.454A4.55,4.55,0,0,0,27.4,18.47a5.641,5.641,0,0,0-1.054,3.448m5.316,21.169H29.747a21.5,21.5,0,0,1-6.226-1.293l-.718-.287a2.959,2.959,0,1,1,2.586-5.316,12.688,12.688,0,0,0,3.688,1.149,8.34,8.34,0,0,0,3.592-.287,4.833,4.833,0,0,0,3.448-3.688,11.252,11.252,0,0,0,.239-3.113l-.1-.1-.144.144a7.348,7.348,0,0,1-4.31,2.49,10.219,10.219,0,0,1-6.513-.718A9.579,9.579,0,0,1,20.36,26.66a12.129,12.129,0,0,1-.814-5.364,12.039,12.039,0,0,1,1.82-6.034,9.125,9.125,0,0,1,6.274-4.31,9.4,9.4,0,0,1,5.939.67,7.136,7.136,0,0,1,2.969,2.49h.1l.048-.144a3.352,3.352,0,0,1,6.609.766V31.018a14.4,14.4,0,0,1-1.006,5.508,10.074,10.074,0,0,1-6.37,5.8,12.551,12.551,0,0,1-3.5.67l-.766.1M154.7,20.051l.192-.192,5.316-6.753.623-.766A3.209,3.209,0,0,1,166,16.076a4.262,4.262,0,0,1-.575.814l-3.352,3.975-.144.192a.407.407,0,0,0,.144.239l4.167,5.651a4.564,4.564,0,0,1,.814,1.916A3.353,3.353,0,0,1,166,31.784a3.3,3.3,0,0,1-2.443.958,3.4,3.4,0,0,1-2.874-1.533L155.9,24.265l-1.054-1.58-.144-.144c-.144.1-.048.239-.048.335v5.747a5.719,5.719,0,0,1-.192,1.58,3.544,3.544,0,0,1-6.944-1.054V3.911a3.556,3.556,0,1,1,7.088-.575l.048.862V20h.1M54.6,22.014l.192,1.485a5.669,5.669,0,0,0,1.676,2.874,4.705,4.705,0,0,0,3.879,1.1,4.454,4.454,0,0,0,3.113-1.724,5.917,5.917,0,0,0,1.054-5.46,4.933,4.933,0,0,0-5.268-3.736A4.5,4.5,0,0,0,55.9,18.231,6.228,6.228,0,0,0,54.6,22.014m5.029-11.351A12.415,12.415,0,0,1,65.619,12.1a10.1,10.1,0,0,1,5.747,7.95,11.253,11.253,0,0,1-.814,6.849,10.909,10.909,0,0,1-6.513,5.843,12.716,12.716,0,0,1-4.981.718,11.818,11.818,0,0,1-7.423-2.826,10.37,10.37,0,0,1-3.5-5.556,11.973,11.973,0,0,1,.383-7.28,10.536,10.536,0,0,1,6.035-6.13,13.2,13.2,0,0,1,3.592-.91l1.485-.1m42.337,8.956h9.052V19a3.784,3.784,0,0,0-1.341-2.49,4.071,4.071,0,0,0-2.347-.958,5.572,5.572,0,0,0-3.4.862,4.31,4.31,0,0,0-1.916,3.209m0,4.406A3.815,3.815,0,0,0,103.55,26.8a5.774,5.774,0,0,0,4.215,1.2,6.517,6.517,0,0,0,2.969-1.054,2.81,2.81,0,0,1,4.167,1.676,2.778,2.778,0,0,1-1.006,2.969,8.621,8.621,0,0,1-2.921,1.341,14.32,14.32,0,0,1-10.536-1.149,10.057,10.057,0,0,1-4.885-6.7,12.452,12.452,0,0,1,.575-7.663,10.456,10.456,0,0,1,7.136-6.226,11.71,11.71,0,0,1,4.454-.479,10.54,10.54,0,0,1,6.035,2.3,11.59,11.59,0,0,1,3.736,8.094,2.781,2.781,0,0,1-2.107,2.778,4.31,4.31,0,0,1-1.1.144H102.017Zm25.575-4.406h9V19a3.783,3.783,0,0,0-1.341-2.49,4.119,4.119,0,0,0-2.347-.958,5.657,5.657,0,0,0-3.4.862,4.31,4.31,0,0,0-1.916,3.209m0,4.406a3.847,3.847,0,0,0,1.58,2.778,5.774,5.774,0,0,0,4.215,1.2,6.135,6.135,0,0,0,2.586-.862,2.818,2.818,0,0,1,4.215,1.868,2.73,2.73,0,0,1-1.054,2.778,7.842,7.842,0,0,1-2.3,1.1,14.128,14.128,0,0,1-10.632-.958,10.057,10.057,0,0,1-5.029-6.7,12.452,12.452,0,0,1,.479-7.663,10.589,10.589,0,0,1,7.184-6.418,12.877,12.877,0,0,1,4.5-.431,10.525,10.525,0,0,1,5.987,2.3,10.512,10.512,0,0,1,3.065,4.5,12.554,12.554,0,0,1,.671,3.544,2.7,2.7,0,0,1-2.395,2.874l-1.006.1H127.592ZM83.914,10.712a15.093,15.093,0,0,1,5.268.958,2.682,2.682,0,1,1-2.155,4.885,7.376,7.376,0,0,0-1.916-.67,4.6,4.6,0,0,0-2.395.1,2.873,2.873,0,0,0-.623.335,1.39,1.39,0,0,0,.1,2.347,7.07,7.07,0,0,0,1.676.623L86.883,20a9.219,9.219,0,0,1,3.065,1.533,5.693,5.693,0,0,1,2.3,4.55,6.955,6.955,0,0,1-.958,3.688A7.14,7.14,0,0,1,87.937,32.6a15.182,15.182,0,0,1-11.015-.383A2.732,2.732,0,0,1,78.262,27a5.539,5.539,0,0,1,1.341.479,6.547,6.547,0,0,0,3.257.91,3.353,3.353,0,0,0,1.676-.335,1.706,1.706,0,0,0,.958-1.533,1.437,1.437,0,0,0-.623-1.149,3.544,3.544,0,0,0-1.245-.575l-2.778-.766a11.638,11.638,0,0,1-2.874-1.149,5.533,5.533,0,0,1-2.538-2.586,6.637,6.637,0,0,1-.479-2.538,6.326,6.326,0,0,1,2.155-4.789,8.662,8.662,0,0,1,2.73-1.58,10.853,10.853,0,0,1,4.071-.67M7.86,16.507V3.863A3.616,3.616,0,0,1,11.548.223,3.541,3.541,0,0,1,14.9,3.288q.057,12.692.1,25.383a4.083,4.083,0,0,1-.24,1.676,3.347,3.347,0,0,1-2.874,2.347,3.5,3.5,0,0,1-3.927-2.682,4.789,4.789,0,0,1-.1-.958V16.507" transform="translate(29.784 0.256)" fill="#231f20" fill-rule="evenodd"/>
  <path id="Path_1926" data-name="Path 1926" d="M111.093,12.188l-1.054-2.921h-.048V12.14a7.073,7.073,0,0,1-1.006.048V7.782h1.533l.958,2.826,1.006-2.874h1.533c.048.287.1,3.975,0,4.454h-1.006V9.314h-.1l-1.054,2.874ZM38.775,7.782h1.533v4.406H39.254V9.314h-.048l-1.1,2.874h-.766L36.284,9.266h-.048V12.14a6.419,6.419,0,0,1-.958.048V7.782h1.485l1.006,2.826.958-2.874m91.092,4.406q-.888-1.34-1.772-2.682v2.73h-1.054V7.734h1.149c.1,0,.192.144.239.239l1.437,2.251c0,.1.1.192.192.287V7.782h1.054V12.14Zm-23.994-2.107a1.252,1.252,0,1,0-2.49-.144,1.275,1.275,0,1,0,2.538.1M104.628,7.59l1.054.239a2.247,2.247,0,0,1,1.341,2.395,2.251,2.251,0,0,1-1.82,2.059,2.586,2.586,0,0,1-2.3-.575,2.5,2.5,0,0,1-.623-2.586,2.131,2.131,0,0,1,2.059-1.437h.287v-.1m-31.37,1.1v2.586l.862-.048a1.156,1.156,0,0,0,1.1-1.149,1.15,1.15,0,0,0-.91-1.341l-1.054-.048m-1.054,3.5V7.782h2.251a1.561,1.561,0,0,1,.623.192,1.916,1.916,0,0,1,1.293,1.772,2.089,2.089,0,0,1-2.011,2.395,16.177,16.177,0,0,1-2.155,0M49.455,9.7a5.169,5.169,0,0,0,.91-.144c.239,0,.335-.239.335-.479,0-.192-.1-.335-.383-.383l-.862-.1Zm0,2.49H48.4V7.734h1.676l.958.192a1.037,1.037,0,0,1,.718,1.054,1.159,1.159,0,0,1-.623,1.2l-.239.144,1.1,1.868H50.748l-.862-1.533c-.1-.192-.192-.239-.479-.144Zm5.46-2.73,1.1-1.2a1.029,1.029,0,0,1,1.1-.479h.623a2.649,2.649,0,0,1-.575.67l-.623.67-.623.671,2.011,2.395a9.578,9.578,0,0,1-1.389,0L56.352,12l-1.2-1.437-.287-.383v2.011H53.813V7.782h1.054V9.458h.048M21.246,7.782H22.3V9.41h1.772V7.782h1.054v4.406H24.072v-1.82H22.348v1.82h-1.1ZM80.058,9.075a5.693,5.693,0,0,0-.575,1.389h1.054l-.479-1.389m1.149,3.113-.287-.718c0-.1-.1-.144-.239-.144H79.149l-.335.862H77.664l1.868-4.454h.862c.239,0,.239.144.287.287l1.2,2.874.527,1.293Zm-20.642-1.82v.91h2.059v.91H59.512V7.782H62.53v.862H60.614v.814h1.772v.91ZM30.3,7.782v.862H28.382v.91h1.772v.862H28.43a1.6,1.6,0,0,0-.048.862h2.012v.958H27.281V7.829ZM43.8,10.464h1.054l-.479-1.485L43.8,10.416m.048-2.634h1.054l1.82,4.406h-1.2l-.335-.862H43.468l-.335.862h-1.1c0-.239,1.533-3.831,1.82-4.406m45.642,2.682h1.054l-.479-1.485-.575,1.437m2.921,1.772h-1.2l-.335-.862H89.158l-.335.862H87.673l1.82-4.406h1.1l1.82,4.406m31.13-1.724-.575-1.485-.479,1.437Zm1.868,1.724h-1.245l-.335-.862h-1.676l-.335.862h-1.149a43.4,43.4,0,0,1,1.82-4.406h1.054l1.868,4.406M100.652,8.308l-.718.67a1.245,1.245,0,0,0-1.868.1,1.517,1.517,0,0,0,.1,1.916c.479.479,1.149.479,1.868-.1l.671.671a2.278,2.278,0,0,1-2.3.718,2.251,2.251,0,0,1-1.772-1.916,2.282,2.282,0,0,1,1.2-2.49,2.576,2.576,0,0,1,2.874.431M117.319,9.7a3.088,3.088,0,0,0,.958-.144c.192,0,.287-.239.287-.479a.406.406,0,0,0-.335-.383l-.862-.1Zm-1.054,2.443V7.734a12.319,12.319,0,0,1,2.3.1,1.112,1.112,0,0,1,1.054,1.149,1.218,1.218,0,0,1-.958,1.437l-.766.1h-.527V12.14Zm16.427-4.406h1.054a.427.427,0,0,1,.383.239l.766,1.389.192-.287.671-1.149A.407.407,0,0,1,136,7.782h1.149l-.239.335-1.293,1.964a.862.862,0,0,0-.192.479v1.628h-1.1v-.91a2.347,2.347,0,0,0-.479-1.772,12.483,12.483,0,0,1-.958-1.437l-.192-.335m-67.242.958H64.206V7.829a22.45,22.45,0,0,1,3.592,0v.862H66.553v3.5h-1.1Zm17.816,0V7.734h3.544v.958h-1.2V12.14a8.478,8.478,0,0,1-1.1.048v-3.5Zm-63.745-.91v.91H18.277v3.5h-1.1v-3.5H15.93V7.734Z" transform="translate(60.363 28.761)" fill="#59a745" fill-rule="evenodd"/>
</svg>
