<svg xmlns="http://www.w3.org/2000/svg" width="199.108" height="38.411" viewBox="0 0 199.108 38.411">
  <g id="Group_1026" data-name="Group 1026" transform="translate(-70.7 -210.102)">
    <path id="Path_3028" data-name="Path 3028" d="M128.84,217.753c5.465,1.752,7.093,1.922,9.524.012,4.708-3.7,7.008-.185,12.258,2.858l-2.585,3.024a14.9,14.9,0,0,0-17.068,19.3l-5.247,1.839-2.451.858,4.336,2.865,6.8-2.383,2.259-.791-1.1-2.119a10.766,10.766,0,0,1,12.629-15.287l1.283.384.87-1.017,5.021-5.875,1.61-1.884-2.143-1.242-10.464-6.066c-2.13-1.234-2.278-1.237-4.548.129-2.4,1.446-3.859,3.907-9.334,1.6C116.9,208.06,111,210,101.266,213.2c-1.914.629-3.992,1.313-6.606,2.065a31.165,31.165,0,0,1-14.566.059c-4.125-.947-7.731-2.68-9.395-5.224a15.418,15.418,0,0,0,12.522,9.928,33.78,33.78,0,0,0,12.585-.791c2.329-.671,4.625-1.426,6.739-2.121,8.8-2.894,14.137-4.648,26.295.634M120.374,232.3c-11.232-3.944-13.747,1.141-23.067,2.332-4.264.545-12.061-.153-13.981-3.087,4.645,10.895,21.6,4.538,27.255,3.69a17.383,17.383,0,0,1,8.971,1.169A13.561,13.561,0,0,1,120.374,232.3Zm-16.9-5.359c8.211-2.7,13.4-4.407,23.93-.338a13.578,13.578,0,0,1,4.011-2.819c-13.583-5.9-19.483-3.961-29.22-.76-1.914.63-3.992,1.313-6.606,2.065a31.165,31.165,0,0,1-14.566.059c-4.071-.934-7.673-2.341-9.366-4.83a15.79,15.79,0,0,0,12.794,9.567,33.592,33.592,0,0,0,12.284-.824C99.067,228.392,101.362,227.637,103.476,226.942Z" fill="#f90" fill-rule="evenodd"/>
    <path id="Path_3029" data-name="Path 3029" d="M279.445,260.206v3.825h18.22v-3.825h-18.22Z" transform="translate(-86.677 -20.805)" fill="#313131"/>
    <path id="Path_3030" data-name="Path 3030" d="M279.445,242.487v3.825h18.037v-3.825H279.445Z" transform="translate(-86.677 -13.447)" fill="#313131"/>
    <path id="Path_3031" data-name="Path 3031" d="M297.492,225.123H279.445v3.825h18.047Z" transform="translate(-86.677 -6.237)" fill="#313131"/>
    <path id="Path_3032" data-name="Path 3032" d="M238.309,249.464h17.073v-3.894h-12.8V225.123h-4.277Z" transform="translate(-69.596 -6.237)" fill="#313131"/>
    <path id="Path_3033" data-name="Path 3033" d="M326.931,243.463l1.565-3.79,4.173-9.736,4.207,9.736h-3.608l-1.565,3.79h6.737l2.469,5.877h4.52l-10.71-24.514h-3.964l-10.71,24.514h4.382Z" transform="translate(-103.536 -6.114)" fill="#313131"/>
    <path id="Path_3034" data-name="Path 3034" d="M391.922,241.953l-13.04-16.829h-3.964v24.34h4.207V232.147l13.422,17.316h3.581v-24.34h-4.207Z" transform="translate(-126.321 -6.237)" fill="#313131"/>
  </g>
</svg>
